<?xml version="1.0" standalone="no"?>
<!DOCTYPE svg PUBLIC "-//W3C//DTD SVG 20010904//EN"
 "http://www.w3.org/TR/2001/REC-SVG-20010904/DTD/svg10.dtd">
<svg version="1.0" xmlns="http://www.w3.org/2000/svg"
 width="920.000000pt" height="920.000000pt" viewBox="0 0 920.000000 920.000000"
 preserveAspectRatio="xMidYMid meet">
<metadata>
Created by potrace 1.11, written by Peter Selinger 2001-2013
</metadata>
<g transform="translate(0.000000,920.000000) scale(0.100000,-0.100000)"
fill="#000000" stroke="none">
<path d="M4607 9034 c-1 -1 -69 -4 -152 -8 -82 -3 -161 -8 -175 -10 -14 -3
-54 -7 -90 -10 -36 -3 -76 -8 -90 -10 -14 -3 -47 -8 -75 -11 -69 -9 -82 -11
-150 -25 -33 -6 -71 -13 -85 -15 -71 -10 -384 -89 -410 -104 -9 -5 -31 -12
-50 -16 -19 -4 -39 -10 -45 -13 -5 -4 -16 -7 -22 -8 -7 -1 -50 -17 -95 -34
-46 -17 -90 -33 -98 -35 -8 -2 -28 -10 -45 -19 -16 -9 -35 -16 -42 -16 -6 0
-24 -6 -40 -14 -29 -15 -153 -72 -210 -97 -18 -8 -33 -17 -33 -20 0 -3 -6 -6
-12 -6 -12 0 -119 -57 -228 -121 -25 -15 -47 -27 -50 -27 -15 -2 -293 -186
-307 -203 -7 -9 -13 -13 -13 -9 0 5 -6 3 -12 -3 -29 -24 -57 -46 -78 -60 -12
-8 -28 -19 -34 -25 -6 -5 -34 -28 -61 -49 -28 -22 -57 -46 -65 -53 -8 -8 -24
-21 -36 -31 -144 -118 -373 -346 -504 -501 -25 -29 -53 -63 -64 -75 -10 -11
-44 -55 -75 -96 -31 -41 -60 -80 -66 -87 -5 -6 -21 -28 -35 -48 -14 -20 -40
-56 -58 -80 -18 -25 -29 -45 -25 -45 4 0 3 -4 -3 -8 -12 -8 -104 -148 -104
-159 0 -3 -6 -14 -14 -22 -29 -34 -186 -337 -179 -345 4 -3 1 -6 -5 -6 -6 0
-14 -10 -18 -22 -4 -13 -22 -55 -40 -95 -19 -40 -34 -76 -34 -81 0 -4 -6 -18
-13 -32 -7 -14 -24 -54 -37 -90 -13 -36 -27 -70 -32 -76 -5 -7 -8 -16 -7 -20
1 -5 -3 -22 -9 -37 -7 -16 -12 -33 -12 -38 0 -5 -4 -17 -9 -27 -14 -26 -62
-184 -64 -210 -1 -12 -5 -22 -9 -22 -4 0 -7 -3 -6 -7 1 -5 -6 -42 -16 -83 -21
-87 -25 -108 -31 -135 -3 -11 -7 -31 -10 -45 -3 -14 -8 -38 -10 -55 -3 -16 -7
-41 -10 -55 -3 -14 -8 -41 -11 -60 -3 -19 -9 -49 -14 -67 -5 -20 -4 -35 3 -42
7 -7 7 -11 1 -11 -6 0 -11 -19 -13 -42 -1 -23 -4 -44 -6 -48 -6 -9 -18 -156
-19 -232 -1 -38 -3 -68 -6 -68 -8 0 -5 -384 3 -397 5 -8 3 -13 -3 -13 -6 0 -8
-5 -4 -12 4 -6 8 -43 10 -82 4 -86 11 -172 18 -206 3 -14 7 -50 10 -80 3 -30
7 -65 10 -77 2 -11 8 -43 12 -70 3 -26 8 -57 11 -68 2 -11 6 -29 8 -40 2 -11
6 -31 9 -45 4 -14 9 -41 12 -60 3 -19 17 -78 31 -130 13 -52 26 -99 27 -105 2
-5 9 -30 16 -55 8 -25 14 -47 15 -50 0 -3 12 -39 25 -80 13 -41 24 -77 25 -80
2 -6 2 -6 56 -147 21 -56 39 -107 39 -113 0 -5 4 -10 8 -10 5 0 9 -6 9 -12 0
-7 15 -44 33 -83 19 -38 34 -72 35 -75 6 -27 18 -50 26 -50 5 0 9 -5 9 -12 0
-12 54 -123 94 -193 13 -22 38 -67 56 -100 19 -33 40 -66 47 -73 7 -7 16 -24
19 -38 3 -13 9 -24 13 -24 4 0 20 -22 36 -50 16 -27 34 -50 39 -50 5 0 7 -3 3
-6 -3 -3 -2 -11 3 -18 49 -59 60 -75 60 -84 0 -6 3 -12 8 -14 4 -2 34 -39 67
-83 78 -104 82 -109 132 -164 23 -25 43 -49 43 -52 0 -12 350 -375 350 -364 0
2 15 -11 33 -28 19 -18 58 -52 87 -77 29 -25 58 -50 64 -56 33 -31 197 -154
206 -154 5 0 10 -4 10 -9 0 -8 53 -46 121 -86 9 -6 24 -16 32 -23 26 -22 189
-122 198 -122 5 0 9 -4 9 -10 0 -5 9 -10 20 -10 11 0 20 -3 20 -8 0 -4 30 -23
68 -42 37 -19 69 -37 72 -40 6 -7 307 -150 315 -150 3 0 24 -9 48 -20 23 -10
98 -40 167 -65 69 -25 132 -49 140 -52 8 -3 21 -7 28 -9 6 -1 49 -14 95 -27
70 -22 146 -43 182 -52 6 -1 21 -5 35 -8 14 -4 36 -9 50 -11 14 -3 52 -12 85
-20 33 -8 74 -16 90 -19 17 -3 41 -8 55 -11 26 -7 46 -9 140 -20 30 -4 66 -10
80 -13 14 -3 43 -7 65 -8 22 -2 72 -6 110 -9 39 -4 95 -9 125 -11 68 -5 446
-5 515 0 28 2 86 6 130 9 44 3 90 8 102 10 12 3 46 7 75 10 29 4 62 8 73 10
11 2 42 7 68 10 64 9 244 44 282 56 17 5 46 11 65 14 19 3 67 15 105 27 39 11
102 29 140 40 39 11 77 23 85 26 8 3 20 7 25 9 18 4 210 74 230 84 11 5 65 28
119 50 54 23 106 45 115 50 9 4 43 21 76 38 179 89 307 160 317 176 4 6 8 8 8
4 0 -5 33 13 73 39 133 85 212 137 217 143 3 3 21 17 40 30 19 13 37 27 40 30
3 3 23 17 45 32 22 15 52 39 68 53 15 14 27 23 27 20 0 -3 12 7 28 22 15 16
41 39 57 51 113 89 408 378 471 463 11 16 24 26 27 22 4 -3 7 1 7 9 0 9 3 18
8 20 4 2 27 28 52 58 25 30 47 57 50 60 3 3 17 21 30 40 28 40 39 55 60 78 47
54 300 451 300 472 0 5 5 10 12 10 6 0 9 3 5 6 -3 3 8 28 24 56 56 94 197 401
209 453 1 6 10 26 20 45 9 19 20 49 24 65 4 17 14 44 21 60 19 44 102 311 111
360 8 43 12 60 14 60 2 0 9 27 15 65 3 19 10 49 15 65 5 17 12 48 15 70 8 43
12 66 19 105 4 22 12 80 22 150 2 14 6 46 9 72 3 26 7 64 10 84 17 139 27 607
13 636 -5 10 -4 19 2 23 6 4 8 10 5 15 -3 5 -8 40 -11 77 -6 89 -12 158 -19
208 -3 22 -8 58 -10 80 -3 22 -8 53 -11 68 -3 16 -7 38 -9 50 -11 87 -18 123
-24 127 -3 3 -6 16 -5 30 0 14 -6 47 -14 75 -8 27 -16 61 -18 75 -3 14 -8 34
-11 45 -4 11 -7 25 -8 30 -2 19 -17 70 -58 200 -22 72 -41 135 -43 140 -1 6
-14 42 -29 80 -15 39 -28 75 -29 80 -2 6 -8 24 -16 40 -7 17 -16 39 -20 50
-88 220 -267 552 -426 789 -10 16 -23 36 -29 44 -5 9 -14 22 -20 29 -26 32
-31 40 -48 66 -10 16 -25 36 -32 45 -8 9 -38 46 -66 82 -140 176 -367 418
-509 543 -30 26 -66 58 -80 71 -14 12 -70 58 -125 102 -55 43 -106 85 -113 92
-7 6 -17 12 -21 12 -5 0 -24 13 -42 30 -19 16 -39 30 -46 30 -6 0 -13 4 -15 8
-4 11 -121 90 -129 88 -4 0 -15 6 -25 15 -24 21 -129 85 -230 140 -112 61
-355 180 -374 184 -3 0 -27 11 -54 23 -27 12 -54 22 -60 22 -7 0 -16 4 -22 8
-5 5 -38 19 -74 31 -36 13 -74 27 -85 32 -20 9 -101 38 -110 39 -3 0 -10 3
-17 5 -62 22 -356 99 -413 109 -27 4 -81 15 -155 31 -14 3 -44 7 -67 9 -24 3
-46 7 -50 9 -5 3 -28 6 -53 8 -25 1 -49 5 -54 7 -4 2 -34 6 -65 8 -31 2 -78 6
-106 9 -105 11 -440 25 -448 19z"/>
</g>
</svg>
