<?xml version="1.0" standalone="no"?>
<!DOCTYPE svg PUBLIC "-//W3C//DTD SVG 20010904//EN"
 "http://www.w3.org/TR/2001/REC-SVG-20010904/DTD/svg10.dtd">
<svg version="1.0" xmlns="http://www.w3.org/2000/svg"
 width="199.000000pt" height="199.000000pt" viewBox="0 0 199.000000 199.000000"
 preserveAspectRatio="xMidYMid meet">
<metadata>
Created by potrace 1.11, written by Peter Selinger 2001-2013
</metadata>
<g transform="translate(0.000000,199.000000) scale(0.100000,-0.100000)"
fill="#000000" stroke="none">
<path d="M23 1980 c-18 -5 -18 -44 -17 -985 1 -539 2 -982 3 -985 0 -3 444 -5
986 -5 l985 0 -2 989 -3 989 -967 1 c-532 0 -975 -1 -985 -4z m1785 -149 l22
-1 -2 -837 -3 -838 -833 0 c-457 0 -833 2 -833 5 -1 3 -2 379 -3 835 l-1 830
30 5 c22 4 1476 4 1623 1z"/>
</g>
</svg>
