<?xml version="1.0" standalone="no"?>
<!DOCTYPE svg PUBLIC "-//W3C//DTD SVG 20010904//EN"
 "http://www.w3.org/TR/2001/REC-SVG-20010904/DTD/svg10.dtd">
<svg version="1.0" xmlns="http://www.w3.org/2000/svg"
 width="1588.000000pt" height="1588.000000pt" viewBox="0 0 1588.000000 1588.000000"
 preserveAspectRatio="xMidYMid meet">
<metadata>
Created by potrace 1.11, written by Peter Selinger 2001-2013
</metadata>
<g transform="translate(0.000000,1588.000000) scale(0.100000,-0.100000)"
fill="#000000" stroke="none">
<path d="M360 14170 l0 -1710 505 0 505 0 0 -4520 0 -4520 -505 0 -505 0 0
-1710 0 -1710 4958 0 c3193 0 5016 4 5122 10 1180 72 2156 304 2996 714 723
353 1175 728 1534 1272 281 427 456 933 537 1549 26 205 26 1031 0 1245 -43
341 -114 660 -202 905 -100 281 -278 599 -447 800 -200 238 -382 387 -728 596
-667 401 -1459 670 -2242 760 l-108 13 0 56 0 57 153 37 c575 142 1292 472
1712 789 441 334 876 838 1119 1299 186 351 303 746 361 1218 22 174 31 674
16 870 -24 307 -68 568 -142 828 -99 353 -268 711 -474 1007 -507 728 -1360
1280 -2439 1580 -424 117 -879 196 -1461 252 -168 16 -526 18 -5222 20 l-5043
3 0 -1710z m10010 1602 c665 -51 1061 -110 1533 -228 1133 -283 2017 -835
2541 -1588 321 -459 510 -992 583 -1639 24 -216 24 -743 -1 -952 -92 -786
-340 -1337 -877 -1949 -331 -377 -674 -640 -1146 -879 -438 -221 -834 -368
-1210 -448 l-113 -24 0 -147 c0 -82 3 -148 8 -148 27 0 289 -34 392 -50 780
-125 1527 -409 2163 -824 483 -315 793 -725 987 -1306 238 -713 273 -1750 84
-2521 -221 -905 -741 -1588 -1575 -2067 -724 -416 -1561 -684 -2549 -816 -185
-25 -495 -55 -795 -78 -120 -9 -1391 -12 -5052 -15 l-4893 -4 0 1616 0 1615
510 0 510 0 0 4620 0 4620 -510 0 -510 0 0 1615 0 1616 4883 -4 c3651 -3 4921
-6 5037 -15z"/>
<path d="M7230 14656 c0 -10 -441 -2441 -443 -2442 -1 0 -512 -230 -1134 -510
-623 -280 -1133 -511 -1133 -514 1 -3 487 -266 1081 -585 594 -319 1087 -585
1095 -590 12 -8 44 -278 150 -1240 74 -676 137 -1231 139 -1234 3 -3 29 18 58
46 28 28 424 406 878 840 670 639 834 792 868 803 39 13 85 4 1232 -234 654
-137 1193 -246 1196 -243 3 3 -237 508 -533 1122 -528 1097 -537 1117 -522
1143 175 302 1218 2135 1216 2137 -2 1 -545 -71 -1208 -161 -663 -89 -1217
-164 -1232 -166 -25 -2 -109 87 -858 912 -457 503 -835 917 -840 918 -6 2 -10
1 -10 -2z"/>
<path d="M8479 7714 c-448 -427 -835 -797 -861 -822 l-47 -45 -1166 243 c-641
134 -1167 241 -1170 238 -3 -3 227 -487 510 -1077 283 -589 515 -1073 515
-1076 0 -2 -266 -469 -590 -1036 -325 -567 -588 -1034 -585 -1037 3 -3 532 65
1175 152 643 87 1176 156 1183 154 8 -2 371 -397 807 -878 436 -481 797 -876
801 -878 11 -5 -3 -79 228 1191 115 632 211 1150 214 1153 2 2 489 223 1083
490 593 267 1082 488 1086 492 4 4 -466 262 -1045 574 l-1052 567 -127 1163
c-70 640 -127 1173 -128 1186 0 12 -4 22 -9 22 -5 0 -375 -349 -822 -776z"/>
</g>
</svg>
