<svg xmlns="http://www.w3.org/2000/svg" viewBox="0 0 228.06 229.71"><defs><style>.cls-1{fill:#194f4b;}.cls-2{fill:#fff;}.cls-3{fill:none;stroke:#fff;stroke-miterlimit:10;}</style></defs><g id="Layer_1" data-name="Layer 1"><circle class="cls-1" cx="115.79" cy="114.85" r="110.68"/><path class="cls-2" d="M123.78,172.32,111.23,151.7l0,0c-3.31-3.93-6.82-7.69-10.33-11.44-1.77-1.85-3.51-3.74-5.38-5.49-.92-.88-1.85-1.77-2.85-2.56a15,15,0,0,0-3.17-2.13l0-.1a22.34,22.34,0,0,1,6.5,4.23c2,1.7,3.82,3.49,5.61,5.35s3.5,3.79,5.19,5.74,3.34,3.94,5,5.94l0,0,0,0,12,20.94Z"/><line class="cls-3" x1="121.18" y1="118.8" x2="127.99" y2="135.65"/><path class="cls-2" d="M111.6,30.29a56.53,56.53,0,0,1,.05,7.13,18.69,18.69,0,0,1-.41,3.57,9.32,9.32,0,0,1-1.46,3.32l-.09,0c.24-1.18.4-2.32.57-3.47s.43-2.29.59-3.46.3-2.33.39-3.51.21-2.36.26-3.54Z"/><path class="cls-2" d="M131.05,19.66A37.25,37.25,0,0,0,130,26.52a17.89,17.89,0,0,0,.66,6.78c.4,1,1,2.06,1.5,3.09s1,2.09,1.51,3.15.91,2.16,1.29,3.28a8.61,8.61,0,0,1,.64,3.48h-.1a5.94,5.94,0,0,0-.48-1.64c-.21-.53-.45-1-.71-1.57-.5-1-1-2.08-1.54-3.11s-1-2.09-1.5-3.15-1-2.09-1.37-3.27a18.38,18.38,0,0,1-.4-7.07A38,38,0,0,1,131,19.63Z"/><path class="cls-3" d="M69.24,54.68s17,13.1,39.39,52.54L131,146.66s1.69,37.61-7.17,50.73c0,0-4.63,6.21,0,11"/><path class="cls-2" d="M36.32,131.82c-1.72,2.31-3.56,4.55-5.51,6.69a26.44,26.44,0,0,1-3.1,3.07l-.87.66c-.32.19-.62.4-.94.59s-.66.34-1,.5a8.08,8.08,0,0,1-1.05.35l0-.09a29.74,29.74,0,0,0,3.24-2.77c1-1,2.14-1.89,3.18-2.87q3.09-3,6-6.2Z"/><path class="cls-3" d="M25.81,133.57s16.81-7.63,28.89-3.32"/><path class="cls-2" d="M112.74,65.62c2.39,2.84,4.66,5.78,6.77,8.86a37.25,37.25,0,0,1,3,4.74,18.37,18.37,0,0,1,1.86,5.3l-.09,0c-.8-1.69-1.72-3.27-2.65-4.85s-1.79-3.21-2.76-4.79-2-3.13-3-4.66-2.08-3.07-3.17-4.56Z"/><path class="cls-3" d="M124.18,71.23s-11.81-17.69-12-21.23"/><path class="cls-3" d="M131,19.65s-5.7,1.65-5.74,17.64-2.19,48.08-.29,52.34c1.14,2.54,8.28,23.6,8,26.74s-3-10.24,7.48-25.28,8.08-29.75,4.17-38.64c-2.55-5.83-12.53-19.67-12.53-22.16S133.57,22.77,131,19.65Z"/><path class="cls-2" d="M138.51,55.36c.33,7.6.43,15.21.25,22.83-.1,3.8-.18,7.62-.64,11.41-.26,1.89-.49,3.79-.93,5.66a20.51,20.51,0,0,1-1.85,5.43l-.09,0a20.52,20.52,0,0,0,.76-2.73,23.58,23.58,0,0,0,.49-2.79c.29-1.86.47-3.75.63-5.63.32-3.77.62-7.55.83-11.34s.3-7.59.37-11.39.11-7.6.08-11.4Z"/><path class="cls-2" d="M159.26,86q4.43-9.36,9-18.65c1.52-3.1,3-6.22,4.64-9.25a87.27,87.27,0,0,1,5.35-8.89l.09.06c-1.55,3.07-3,6.2-4.55,9.29s-3.2,6.1-4.81,9.15L159.35,86Z"/><path class="cls-3" d="M132.05,174.24s22-33.21,35.86-38.51a58.23,58.23,0,0,0,22.29-15.67s-2,10.9-9.2,17.65-11.9,13.15-14.21,17.82-14.78,9.2-14.78,9.2-8.91,1.74-14.85,4.79C134.56,170.85,132.53,172.44,132.05,174.24Z"/><path class="cls-3" d="M134.88,170.13s19.64-17.71,22.87-20,12-9.69,15.19-12.12,13.88-9.83,16.05-16.55"/><path class="cls-3" d="M133,116.37s7.26,42.44-13.05,85.1c0,0-.46,5.6,3.89,6.91,0,0,16.61-74.53,7.17-95.37-3.11-6.87-9.76-10.36-16.83-23.79s-7.82-37.86-7-44.82,5.55-16.56,5.55-16.56,3.36,13,0,20.74c-.19.45-.37.92-.54,1.42-2.76,8.14-2.94,24-2.94,24"/><path class="cls-3" d="M136.94,146.66s-3.46,3.85-7.46,28.81"/><path class="cls-3" d="M132.05,174.24s-3,4.27-6.84,19.92c0,0-2.52,9.53-.31,14.39"/><path class="cls-3" d="M124.9,176a28.33,28.33,0,0,1,.66,24.08"/><path class="cls-3" d="M132.66,111.07s5.43,31.56.55,52.64a142.62,142.62,0,0,0-3.73,37.76c-5.65,6.91.54,7.94-5.65,6.91"/><path class="cls-3" d="M133,151.57c.18,3.74-2.45-6.75-5.09-16.14"/><path class="cls-3" d="M121.83,120.39c-1.66-4-5.18-9.33-5.84-11.32-.85-2.55-13.59-23.23-14.87-24.93S90.77,69.69,87.94,67.71s-12.46-11-18.7-13c0,0,7.94,11.89,10.77,20.68s8.5,20.11,9.63,23.23,13,17.61,19.85,25.44c0,0,16.44,12.73,21.51,22.63"/><path class="cls-3" d="M169.17,88.82c.37,5.24-.45,18.34-3.57,25.45s-8,5.87-13.1,17a32.67,32.67,0,0,1-15.56,15.41s7.82-44.62,12.19-52.1,8.73-21.47,17.1-27.46,14-22.81,14-22.81,3.75,2.45-.75,10.39-5,9.68-4.86,12.8c.1,2.69-4.26,13-5.23,19.09Z"/><line class="cls-3" x1="167.94" y1="105.96" x2="166.81" y2="110.86"/><line class="cls-3" x1="112.91" y1="86.54" x2="116.71" y2="93.68"/><path class="cls-3" d="M124.47,86.5a11.1,11.1,0,0,0,1.31,5.22"/><path class="cls-2" d="M51.19,121.91l3.66-1.43a29.51,29.51,0,0,1,3.7-1.31,32.59,32.59,0,0,1,7.81-.81c5.25,0,10.47.58,15.67,1.11a24.39,24.39,0,0,1,7.69,1.77,44.15,44.15,0,0,1,6.89,3.83,23.54,23.54,0,0,1,5.79,5.34c1.52,2.13,3,4.28,4.51,6.43l0,0q-2.4-3.1-4.72-6.27a23.56,23.56,0,0,0-5.82-5.12,43.61,43.61,0,0,0-6.81-3.79A23.93,23.93,0,0,0,82,119.87c-5.2-.58-10.4-1.19-15.63-1.26a32.18,32.18,0,0,0-7.77.71,29.42,29.42,0,0,0-3.71,1.25L51.21,122Z"/><path class="cls-2" d="M68,121.63a111.35,111.35,0,0,0-15.82.32,56.79,56.79,0,0,0-7.81,1.16A34.14,34.14,0,0,0,37,126a49.62,49.62,0,0,0-12.64,9.34,29.52,29.52,0,0,0-2.46,3.07,39.57,39.57,0,0,1-2.59,3,74.48,74.48,0,0,1-5.77,5.47l-.16-.46a15.06,15.06,0,0,0,3.31-.45,28.06,28.06,0,0,0,3.24-1,43.93,43.93,0,0,0,6.16-2.83,107.27,107.27,0,0,0,11.32-7.57c1.84-1.34,3.67-2.7,5.63-3.9a19.24,19.24,0,0,1,3.11-1.56,7.43,7.43,0,0,1,3.51-.52,43.21,43.21,0,0,1,6.66,1.78c2.17.73,4.31,1.49,6.45,2.27l12.8,4.78c4.27,1.56,8.54,3.23,12.88,4.38a18.54,18.54,0,0,1,6.16,3.28,54.72,54.72,0,0,1,5.22,4.5A108.11,108.11,0,0,1,109,159.77l-.08-.08a130.06,130.06,0,0,1,13.39,12,17.86,17.86,0,0,1,2.77,3.67c.08.18.17.4.23.56l.08.24,0,.09h0s-.06-.07-.11-.09a.45.45,0,0,0-.18,0,.4.4,0,0,0-.27.12.33.33,0,0,0-.09.14h0V176l-.06-.54c-.08-.73-.2-1.47-.32-2.2-.49-2.93-1.09-5.86-1.8-8.75a40.79,40.79,0,0,0-1.27-4.25,6.63,6.63,0,0,0-.44-1c-.16-.27-.41-.62-.61-.92l-1.21-1.9-4.73-7.61-4.71-7.62c-1.61-2.52-3.14-5.1-5-7.46l.07-.06c1.88,2.34,3.46,4.87,5.13,7.35l4.87,7.53,4.81,7.56,1.22,1.87c.22.32.41.58.64.94a8.45,8.45,0,0,1,.5,1.06,42.2,42.2,0,0,1,1.34,4.32q1.13,4.35,1.92,8.78c.13.74.25,1.48.35,2.23l.07.57,0,.31a1,1,0,0,1,0,.17.57.57,0,0,1,0,.12v.08a.71.71,0,0,1-.12.2.44.44,0,0,1-.3.13.37.37,0,0,1-.22,0,.92.92,0,0,1-.16-.13s-.07-.1-.08-.12,0-.12-.07-.17l-.11-.28c-.07-.19-.13-.32-.2-.48a17.34,17.34,0,0,0-2.66-3.42c-2-2.14-4.26-4.14-6.5-6.09s-4.53-3.88-6.86-5.74l0,0,0,0a107.49,107.49,0,0,0-9.1-10.09A53.53,53.53,0,0,0,94,145.88a17.83,17.83,0,0,0-5.8-3.14c-4.46-1.22-8.68-2.91-13-4.5L62.5,133.39c-2.13-.79-4.27-1.57-6.42-2.29a41.73,41.73,0,0,0-6.51-1.79,6.88,6.88,0,0,0-3.18.47,17.73,17.73,0,0,0-3,1.49c-1.93,1.16-3.77,2.51-5.61,3.84a108.93,108.93,0,0,1-11.42,7.55,41.94,41.94,0,0,1-6.26,2.83,27.11,27.11,0,0,1-3.3,1,15.76,15.76,0,0,1-3.45.46h-.69l.54-.46A73.31,73.31,0,0,0,19,141.07a38.38,38.38,0,0,0,2.58-3A29.23,29.23,0,0,1,24.06,135a50.17,50.17,0,0,1,12.8-9.32,33.81,33.81,0,0,1,7.42-2.83,56.19,56.19,0,0,1,7.85-1.11A110.22,110.22,0,0,1,68,121.53Z"/><path class="cls-2" d="M155.21,95.49q-5.06,12.11-9.69,24.35c-1.52,4.09-2.93,8.22-4.4,12.32-.72,2.05-1.43,4.11-2.08,6.19a62.24,62.24,0,0,0-1.69,6.3h-.1c.33-4.39,1.66-8.62,2.93-12.8s3-8.23,4.59-12.29q4.89-12.18,10.35-24.1Z"/></g></svg>