<?xml version="1.0" standalone="no"?>
<!DOCTYPE svg PUBLIC "-//W3C//DTD SVG 20010904//EN"
 "http://www.w3.org/TR/2001/REC-SVG-20010904/DTD/svg10.dtd">
<svg version="1.0" xmlns="http://www.w3.org/2000/svg"
 width="1108.000000pt" height="1108.000000pt" viewBox="0 0 1108.000000 1108.000000"
 preserveAspectRatio="xMidYMid meet">
<metadata>
Created by potrace 1.11, written by Peter Selinger 2001-2013
</metadata>
<g transform="translate(0.000000,1108.000000) scale(0.100000,-0.100000)"
fill="#000000" stroke="none">
<path d="M4049 9026 c-2 -2 -40 -7 -83 -11 -43 -4 -88 -8 -100 -11 -11 -2 -38
-6 -61 -9 -69 -10 -258 -56 -315 -76 -30 -11 -60 -21 -67 -22 -7 -2 -16 -6
-19 -10 -4 -4 -14 -7 -22 -7 -14 0 -255 -116 -297 -142 -59 -39 -175 -119
-191 -133 -6 -5 -36 -30 -65 -55 -30 -25 -72 -61 -94 -81 -53 -48 -78 -60
-124 -61 -49 0 -93 23 -127 68 -25 32 -28 44 -31 137 -4 125 -6 138 -39 177
-50 59 -12 57 -969 56 -987 -1 -912 5 -965 -74 l-24 -37 -2 -1825 c-1 -1004
-2 -1828 -3 -1832 0 -4 -13 -3 -27 2 -17 7 -23 7 -19 0 4 -7 -3 -8 -22 -4 -15
4 -30 8 -32 10 -1 1 -13 -1 -25 -6 -13 -4 -29 -4 -36 0 -8 5 -19 6 -24 3 -13
-9 -56 -10 -56 -2 0 3 -20 3 -45 -1 -25 -4 -48 -3 -51 2 -3 4 -11 5 -17 1 -6
-4 -25 -8 -42 -9 -16 -1 -35 -2 -42 -3 -9 -1 -11 -350 -10 -1506 2 -1318 4
-1507 17 -1515 9 -5 2208 -9 5522 -9 4784 0 5509 2 5522 14 12 12 14 83 15
440 0 328 -3 424 -12 418 -9 -5 -9 -3 -1 8 14 16 19 2116 6 2134 -10 14 -72
35 -72 24 0 -5 -11 -4 -26 1 -16 7 -23 7 -19 0 4 -7 -2 -7 -18 -1 -14 6 -27 7
-30 5 -10 -10 -42 -11 -58 -3 -9 5 -19 5 -23 2 -8 -8 -56 -10 -56 -2 0 3 -20
3 -45 -1 -25 -4 -48 -3 -51 2 -3 5 -12 4 -20 -3 -11 -9 -14 -9 -14 0 0 8 -5 9
-19 2 -37 -20 -42 6 -42 217 0 110 1 203 2 208 1 5 1 14 0 19 -3 13 -3 209 0
221 1 5 1 14 0 19 -2 14 -2 370 0 381 1 5 1 14 0 19 -3 13 -3 209 0 221 1 5 1
14 0 19 0 6 -3 141 -5 300 -6 354 -11 425 -42 635 -54 369 -175 676 -364 925
-119 158 -292 315 -455 415 -44 27 -84 53 -90 57 -5 5 -66 34 -135 65 -162 73
-347 133 -501 162 -111 20 -210 36 -264 41 -159 17 -253 20 -525 19 -173 -1
-340 -3 -370 -6 -71 -8 -170 -19 -192 -23 -9 -2 -38 -7 -65 -10 -111 -16 -328
-74 -445 -118 -78 -30 -251 -109 -258 -118 -3 -3 -21 -14 -40 -24 -33 -17
-158 -97 -190 -122 -129 -101 -289 -252 -372 -351 -46 -55 -98 -80 -152 -75
-58 7 -93 37 -172 149 -70 99 -208 247 -299 321 -207 167 -451 275 -739 328
-125 23 -137 24 -201 31 -33 3 -71 8 -85 11 -29 6 -565 14 -571 9z m-314
-1431 c28 -3 57 -7 65 -10 8 -2 30 -7 49 -10 19 -3 38 -8 43 -11 4 -3 16 -7
26 -9 27 -5 156 -67 160 -77 2 -4 8 -8 14 -8 16 0 89 -59 135 -109 102 -112
189 -316 209 -491 3 -25 8 -56 11 -70 3 -14 7 -408 8 -876 l2 -852 -30 9 c-19
5 -35 5 -42 -1 -7 -5 -15 -7 -18 -4 -9 9 -107 10 -107 2 0 -4 -11 -3 -25 2
-16 6 -25 6 -25 0 0 -6 -9 -6 -22 -1 -13 5 -33 5 -45 0 -14 -5 -25 -4 -29 2
-4 7 -10 6 -19 -1 -9 -7 -15 -8 -19 -1 -9 14 -37 2 -29 -13 3 -6 -2 -3 -13 6
-13 11 -24 14 -34 8 -8 -5 -21 -5 -31 0 -9 5 -19 6 -23 3 -8 -8 -56 -10 -56
-2 0 3 -20 3 -45 -1 -25 -4 -48 -3 -51 2 -3 5 -12 4 -19 -2 -9 -7 -15 -8 -19
-1 -9 14 -37 2 -29 -13 3 -6 -2 -3 -13 6 -13 11 -24 14 -34 8 -8 -5 -21 -5
-31 0 -9 5 -19 6 -23 3 -8 -8 -56 -11 -56 -3 0 4 -22 4 -50 0 -27 -4 -50 -4
-50 -1 0 3 -13 6 -30 6 -16 0 -30 -3 -30 -7 0 -4 -12 -3 -26 2 -18 7 -30 7
-39 0 -6 -5 -15 -7 -18 -4 -8 9 -167 10 -167 2 0 -4 -11 -3 -25 2 -16 6 -25 6
-25 -1 0 -6 -6 -6 -19 0 -10 6 -21 8 -24 4 -9 -8 -57 -12 -57 -5 0 4 -11 7
-24 7 -13 0 -23 -2 -21 -5 5 -7 -125 -4 -132 4 -3 3 -12 1 -20 -5 -10 -9 -13
-8 -13 0 0 8 -5 9 -17 2 -11 -6 -24 -6 -35 0 -10 6 -19 5 -23 -1 -4 -7 -13 -7
-26 0 -10 6 -19 7 -19 3 0 -10 -41 -10 -56 -1 -11 7 -11 1316 0 1413 4 33 9
78 11 100 26 220 93 425 191 582 88 141 249 288 376 342 43 18 81 33 85 32 2
0 21 6 43 14 22 8 40 12 40 10 0 -3 11 0 25 5 13 5 57 12 97 16 40 3 74 7 75
8 3 2 119 -3 168 -9z m3947 1 c290 -26 503 -173 616 -426 27 -61 68 -188 76
-235 3 -16 7 -39 9 -50 3 -11 8 -42 12 -70 4 -27 9 -66 12 -85 10 -57 15
-1650 6 -1651 -44 -4 -70 -3 -66 3 2 5 -6 4 -19 0 -20 -7 -43 -8 -50 -3 -9 7
-131 5 -134 -1 -3 -5 -10 -6 -15 -2 -15 9 -169 10 -169 2 0 -4 -11 -3 -25 2
-16 6 -25 6 -25 -1 0 -6 -6 -6 -19 0 -10 6 -21 8 -24 4 -9 -8 -57 -12 -57 -5
0 4 -11 7 -24 7 -13 0 -22 -4 -19 -8 4 -7 -47 1 -56 9 -2 2 -12 -1 -22 -6 -10
-6 -20 -6 -23 -2 -5 8 -42 7 -83 -2 -13 -3 -23 0 -23 5 0 6 -6 7 -17 0 -10 -5
-26 -5 -40 0 -14 5 -23 5 -23 -1 0 -6 -9 -6 -25 0 -16 6 -25 6 -25 -1 0 -6 -6
-6 -18 0 -11 6 -24 6 -35 0 -12 -7 -17 -6 -17 2 0 8 -3 9 -13 0 -8 -6 -17 -8
-20 -5 -8 9 -107 11 -107 2 0 -4 -13 -3 -30 2 -18 5 -30 5 -30 0 0 -6 -10 -6
-25 0 -16 6 -25 6 -25 -1 0 -6 -6 -6 -19 0 -10 6 -21 8 -24 5 -9 -10 -68 -11
-73 -2 -3 5 -12 4 -19 -2 -9 -7 -15 -8 -19 -1 -9 14 -37 2 -29 -13 3 -6 -2 -3
-13 6 -13 11 -24 14 -34 8 -8 -5 -21 -5 -31 0 -9 5 -19 6 -23 3 -9 -9 -56 -10
-56 -1 0 4 -6 5 -12 3 -30 -10 -68 -13 -68 -5 0 6 -11 5 -26 0 -16 -7 -23 -7
-19 0 4 6 -2 7 -18 1 -51 -20 -50 -38 -49 620 0 573 4 736 18 849 7 60 8 61
40 236 3 15 9 35 15 46 5 10 7 18 5 18 -3 0 11 46 31 102 108 305 287 496 556
593 69 25 223 58 236 51 3 -2 14 -1 23 3 19 7 80 6 180 -3z m-7427 -2756 c3
-6 -1 -7 -9 -4 -18 7 -21 14 -7 14 6 0 13 -4 16 -10z m3266 -93 c-10 -9 -11
-8 -5 6 3 10 9 15 12 12 3 -3 0 -11 -7 -18z m3523 7 c3 -8 2 -12 -4 -9 -6 3
-10 10 -10 16 0 14 7 11 14 -7z m-4316 -159 c-3 -3 -9 2 -12 12 -6 14 -5 15 5
6 7 -7 10 -15 7 -18z m795 10 c-3 -9 -8 -14 -10 -11 -3 3 -2 9 2 15 9 16 15
13 8 -4z m3845 -10 c-3 -3 -9 2 -12 12 -6 14 -5 15 5 6 7 -7 10 -15 7 -18z
m-4553 -395 c-3 -5 -12 -10 -18 -10 -7 0 -6 4 3 10 19 12 23 12 15 0z m4800
-160 c-3 -5 -12 -10 -18 -10 -7 0 -6 4 3 10 19 12 23 12 15 0z m470 -8 c-3 -3
-11 0 -18 7 -9 10 -8 11 6 5 10 -3 15 -9 12 -12z m2885 -146 c0 -2 -7 -7 -16
-10 -8 -3 -12 -2 -9 4 6 10 25 14 25 6z m-6966 -92 c3 -8 2 -12 -4 -9 -6 3
-10 10 -10 16 0 14 7 11 14 -7z m3197 -7 c-10 -9 -11 -8 -5 6 3 10 9 15 12 12
3 -3 0 -11 -7 -18z m-7116 -75 c-3 -3 -11 0 -18 7 -9 10 -8 11 6 5 10 -3 15
-9 12 -12z m6400 -160 c-3 -3 -11 0 -18 7 -9 10 -8 11 6 5 10 -3 15 -9 12 -12z
m-1430 -152 c3 -6 -1 -7 -9 -4 -18 7 -21 14 -7 14 6 0 13 -4 16 -10z m475
-154 c0 -2 -7 -7 -16 -10 -8 -3 -12 -2 -9 4 6 10 25 14 25 6z m485 -6 c3 -6
-1 -7 -9 -4 -18 7 -21 14 -7 14 6 0 13 -4 16 -10z m1750 -8 c-3 -3 -11 0 -18
7 -9 10 -8 11 6 5 10 -3 15 -9 12 -12z m-6324 -85 c-10 -9 -11 -8 -5 6 3 10 9
15 12 12 3 -3 0 -11 -7 -18z m8962 -142 c-3 -9 -8 -14 -10 -11 -3 3 -2 9 2 15
9 16 15 13 8 -4z m-2633 -79 c0 -2 -7 -7 -16 -10 -8 -3 -12 -2 -9 4 6 10 25
14 25 6z m-6966 -92 c3 -8 2 -12 -4 -9 -6 3 -10 10 -10 16 0 14 7 11 14 -7z
m1440 0 c3 -8 2 -12 -4 -9 -6 3 -10 10 -10 16 0 14 7 11 14 -7z m1920 0 c3 -8
2 -12 -4 -9 -6 3 -10 10 -10 16 0 14 7 11 14 -7z m637 -7 c-10 -9 -11 -8 -5 6
3 10 9 15 12 12 3 -3 0 -11 -7 -18z m642 -142 c-3 -9 -8 -14 -10 -11 -3 3 -2
9 2 15 9 16 15 13 8 -4z m645 -10 c-3 -3 -9 2 -12 12 -6 14 -5 15 5 6 7 -7 10
-15 7 -18z m-4398 -69 c0 -2 -7 -7 -16 -10 -8 -3 -12 -2 -9 4 6 10 25 14 25 6z
m1920 0 c0 -2 -7 -7 -16 -10 -8 -3 -12 -2 -9 4 6 10 25 14 25 6z m6075 -14
c-3 -3 -11 0 -18 7 -9 10 -8 11 6 5 10 -3 15 -9 12 -12z m-715 -72 c0 -5 -5
-10 -11 -10 -5 0 -7 5 -4 10 3 6 8 10 11 10 2 0 4 -4 4 -10z m1434 -6 c3 -8 2
-12 -4 -9 -6 3 -10 10 -10 16 0 14 7 11 14 -7z m-7996 -159 c-3 -3 -9 2 -12
12 -6 14 -5 15 5 6 7 -7 10 -15 7 -18z m4795 10 c-3 -9 -8 -14 -10 -11 -3 3
-2 9 2 15 9 16 15 13 8 -4z m-2958 -93 c-3 -3 -11 0 -18 7 -9 10 -8 11 6 5 10
-3 15 -9 12 -12z m490 8 c-3 -5 -12 -10 -18 -10 -7 0 -6 4 3 10 19 12 23 12
15 0z m4955 6 c0 -2 -7 -7 -16 -10 -8 -3 -12 -2 -9 4 6 10 25 14 25 6z"/>
</g>
</svg>
